<?xml version="1.0" encoding="UTF-8" standalone="no"?>
<!-- Created with Inkscape (http://www.inkscape.org/) -->

<svg
   xmlns:dc="http://purl.org/dc/elements/1.1/"
   xmlns:cc="http://creativecommons.org/ns#"
   xmlns:rdf="http://www.w3.org/1999/02/22-rdf-syntax-ns#"
   xmlns:svg="http://www.w3.org/2000/svg"
   xmlns="http://www.w3.org/2000/svg"
   xmlns:sodipodi="http://sodipodi.sourceforge.net/DTD/sodipodi-0.dtd"
   xmlns:inkscape="http://www.inkscape.org/namespaces/inkscape"
   width="47.491001mm"
   height="47.548mm"
   viewBox="0 0 47.491001 47.548"
   version="1.1"
   id="svg8"
   inkscape:version="0.92.3 (2405546, 2018-03-11)"
   sodipodi:docname="searchIcon.svg">
  <defs
     id="defs2" />
  <sodipodi:namedview
     id="base"
     pagecolor="#ffffff"
     bordercolor="#666666"
     borderopacity="1.0"
     inkscape:pageopacity="0.0"
     inkscape:pageshadow="2"
     inkscape:zoom="0.35"
     inkscape:cx="-802.8414"
     inkscape:cy="586.7559"
     inkscape:document-units="mm"
     inkscape:current-layer="layer1"
     showgrid="false"
     inkscape:window-width="1366"
     inkscape:window-height="705"
     inkscape:window-x="-8"
     inkscape:window-y="-8"
     inkscape:window-maximized="1" />
  <metadata
     id="metadata5">
    <rdf:RDF>
      <cc:Work
         rdf:about="">
        <dc:format>image/svg+xml</dc:format>
        <dc:type
           rdf:resource="http://purl.org/dc/dcmitype/StillImage" />
        <dc:title></dc:title>
      </cc:Work>
    </rdf:RDF>
  </metadata>
  <g
     inkscape:label="Camada 1"
     inkscape:groupmode="layer"
     id="layer1"
     transform="translate(0,-249.452)">
    <path
       style="fill:#010017;fill-opacity:1;stroke-width:0.26458335"
       d="m 42.043042,296.61978 c -0.45299,-0.22349 -3.63547,-3.3038 -7.07217,-6.84515 l -6.24855,-6.43882 -1.99844,1.00395 c -2.76832,1.39073 -5.24568,1.96326 -8.46346,1.95595 -3.19839,-0.007 -5.26912,-0.50384 -8.3343799,-1.99867 -1.81242,-0.88385 -2.68804,-1.5384 -4.511,-3.37208 -2.49309,-2.50776 -3.73931,-4.58172 -4.78539997,-7.96389 -0.78671,-2.54355 -0.84524,-7.14172 -0.12461,-9.78958 1.41543997,-5.20082 4.85849997,-9.43934 9.55329987,-11.76042 10.29136,-5.08798 22.39147,0.11859 25.99906,11.18716 0.54097,1.65975 0.66487,2.58153 0.68169,5.07117 0.0239,3.53461 -0.4024,5.48658 -1.84039,8.42749 l -0.95113,1.94519 6.61164,6.65377 c 6.98047,7.02495 7.1948,7.31684 6.82399,9.29344 -0.44648,2.37995 -3.14931,3.71132 -5.34015,2.63049 z m -20.96982,-15.83769 c 6.11813,-1.29681 10.31384,-6.50187 10.35662,-12.8481 0.0608,-9.01483 -8.83649,-15.38421 -17.3814,-12.44301 -8.8883499,3.05941 -11.7701399,14.33581 -5.4350799,21.26737 3.2888699,3.59855 7.7178999,5.02884 12.4598599,4.02374 z"
       id="path826"
       inkscape:connector-curvature="0" />
  </g>
</svg>
